<?xml version="1.0" encoding="utf-8"?>
<!-- Generator: Adobe Illustrator 30.2.1, SVG Export Plug-In . SVG Version: 9.03 Build 0)  -->
<svg version="1.0" id="Layer_1" xmlns="http://www.w3.org/2000/svg" xmlns:xlink="http://www.w3.org/1999/xlink" x="0px" y="0px"
	 viewBox="0 0 2048 2048" style="enable-background:new 0 0 2048 2048;" xml:space="preserve">
<g fill="#206d13">
	<path d="M557.5,119.6h208.6l159.4,738.3c19.5,92.2,37.3,184.6,53.3,277.1c16,92.6,30.6,189.7,43.9,291.2
		c1.6-13.3,2.7-23.6,3.5-31.1c0.7-7.4,1.6-12.7,2.3-15.8l34-207.4l30.5-196.9l27-130.1l141.8-725.4h210.9l166.4,1809.3h-233.2
		l-41-614c-1.6-31.2-2.9-58.2-4.1-80.9c-1.2-22.7-1.8-41.4-1.8-56.2l-10.5-242.6l-5.9-222.7c0-1.6-0.2-4.9-0.6-10
		c-0.4-5.1-1-11.9-1.8-20.5l-5.9,36.3c-6.3,43-11.9,80.5-17,112.5c-5.1,32-9.6,59-13.5,80.9l-30.5,165.2l-11.7,62.1l-152.3,789.8
		H945.4l-143-682c-19.5-89.8-36.9-181.1-52.1-273.6c-15.2-92.6-29.1-189.6-41.6-291.2l-70.3,1246.8H408.7L557.5,119.6z"/>
</g>
</svg>
