<?xml version="1.0" encoding="utf-8"?>
<!-- Generator: Adobe Illustrator 30.2.1, SVG Export Plug-In . SVG Version: 9.03 Build 0)  -->
<svg version="1.0" id="Layer_1" xmlns="http://www.w3.org/2000/svg" xmlns:xlink="http://www.w3.org/1999/xlink" x="0px" y="0px"
	 viewBox="0 0 240 134" style="enable-background:new 0 0 240 134;" xml:space="preserve">
<style type="text/css">
	.st0{fill:#231F20;}
</style>
<g>
	<path class="st0" d="M102.6,38.7v36.4h-6.7v-4.7c-1,2-1.9,3.4-2.9,4.1s-2.2,1.1-3.8,1.1c-3,0-5.2-1.5-6.6-4.6s-2.1-7.9-2.1-14.6
		c0-6.3,0.7-10.9,2.1-13.9c1.4-3,3.6-4.4,6.6-4.4c2.8,0,5,1.6,6.7,4.7v-4.1H102.6z M87.4,56.7c0,4.8,0.3,8.1,0.9,10
		c0.7,1.9,1.8,2.8,3.4,2.8c1.5,0,2.6-1,3.3-3c0.7-2.1,1-5.4,1-9.7c0-4.4-0.3-7.7-1-9.8c-0.7-2-1.8-3-3.3-3c-1.6,0-2.7,0.9-3.4,2.8
		C87.8,48.7,87.4,52,87.4,56.7z"/>
	<path class="st0" d="M112.1,38.7h6.7v4.5c1.1-1.9,2.3-3.3,3.4-4s2.6-1.2,4.5-1.3v7c-0.5-0.1-0.9-0.1-1.2-0.1
		c-2.4,0-4.1,0.6-5.2,1.9c-1,1.2-1.5,3.4-1.5,6.4v22h-6.7V38.7z"/>
	<path class="st0" d="M132.4,38.7h21.1L141.3,69h11.5v6.1h-21.5L144,44.6h-11.6V38.7z"/>
	<path class="st0" d="M181.7,57.2c0,12.3-3.8,18.5-11.4,18.5c-7.6,0-11.4-6.2-11.4-18.7c0-12.5,3.8-18.8,11.4-18.8
		c2,0,3.7,0.4,5.1,1.1c1.4,0.8,2.6,1.9,3.6,3.5c0.9,1.6,1.6,3.6,2.1,5.9S181.7,53.9,181.7,57.2z M174.7,57c0-4.8-0.3-8.1-0.9-10
		c-0.6-1.9-1.8-2.8-3.4-2.8c-1.6,0-2.7,0.9-3.4,2.8c-0.6,1.9-0.9,5.1-0.9,9.8c0,4.7,0.3,7.9,0.9,9.8c0.7,1.9,1.8,2.8,3.4,2.8
		c1.6,0,2.7-0.9,3.3-2.8C174.4,64.9,174.7,61.7,174.7,57z"/>
	<path class="st0" d="M189.7,15.3h6.7v59.7h-6.7V15.3z"/>
	<path class="st0" d="M203.3,38.7h3.4V26c0-4.1,0.6-7.1,1.8-8.8c1.2-1.7,3.3-2.6,6.4-2.6c1.3,0,2.8,0.3,4.6,0.9v7.1
		c-1.1-0.6-2-0.9-2.8-0.9c-1.1,0-2,0.3-2.4,1c-0.5,0.7-0.7,1.8-0.7,3.4l0,2.7v9.7h5.7V44h-5.7v31h-6.7V44h-3.4V38.7z"/>
</g>
<path class="st0" d="M18.7,6.9v82h56v-82H18.7z M58.1,75.1l-1.2-18.4c0-0.9-0.1-1.7-0.1-2.4c0-0.7-0.1-1.2-0.1-1.7l-0.3-7.3
	l-0.2-6.7c0,0,0-0.1,0-0.3c0-0.2,0-0.4-0.1-0.6L56,38.7c-0.2,1.3-0.4,2.4-0.5,3.4c-0.2,1-0.3,1.8-0.4,2.4l-0.9,5l-0.4,1.9l-4.6,23.7
	h-4.9L40,54.6c-0.6-2.7-1.1-5.4-1.6-8.2s-0.9-5.7-1.2-8.7l-2.1,37.4h-6.9l4.5-54.3h6.3l4.8,22.1c0.6,2.8,1.1,5.5,1.6,8.3
	c0.5,2.8,0.9,5.7,1.3,8.7c0-0.4,0.1-0.7,0.1-0.9c0-0.2,0-0.4,0.1-0.5l1-6.2l0.9-5.9l0.8-3.9l4.3-21.8h6.3l5,54.3H58.1z"/>
<g>
	<path class="st0" d="M19.5,99.7h3.2v24.1h-3.2V99.7z"/>
	<path class="st0" d="M26.2,99.7h3l3.2,9.6c0.9,2.7,1.8,5.6,2.5,8.7c-0.3-1.9-0.5-3.6-0.6-5.1c-0.1-1.5-0.2-2.9-0.2-4.3v-9h3.3v24.1
		h-3l-3.6-10.9c-0.3-1-0.6-2-0.9-3.1s-0.6-2.2-0.8-3.3c0-0.1-0.1-0.3-0.1-0.5c0-0.2-0.1-0.4-0.2-0.7c0,0.3,0.1,0.5,0.1,0.7
		c0,0.2,0,0.4,0,0.5l0.2,2.5l0.2,3c0,0.2,0,0.4,0,0.6c0,0.2,0,0.5,0,0.8l0.2,10.5h-3.2V99.7z"/>
	<path class="st0" d="M39.5,99.7h3.2l1.5,8.9l0.2,1.6l0.5,3.5c0.1,0.6,0.2,1.1,0.2,1.6c0.1,0.5,0.1,0.9,0.2,1.3l0.2,1.2
		c0-0.2,0.1-0.5,0.1-0.6c0-0.2,0-0.3,0.1-0.5l0.4-2.8l0.5-3.7c0.1-0.3,0.1-0.6,0.1-0.9s0.1-0.5,0.1-0.8l1.6-8.9h3l-4.7,24.1h-2.6
		L39.5,99.7z"/>
	<path class="st0" d="M53.5,99.7h8.6v2.8h-5.4v7.6h4.8v2.8h-4.8v8.2h5.4v2.8h-8.6V99.7z"/>
	<path class="st0" d="M73.1,100.2v3.2c-1-0.7-1.9-1.1-2.7-1.1c-0.9,0-1.6,0.3-2.1,0.9c-0.5,0.6-0.8,1.3-0.8,2.3
		c0,0.8,0.2,1.6,0.6,2.2c0.2,0.3,0.5,0.7,1,1.2c0.5,0.5,1,1.1,1.8,1.8c1.3,1.3,2.2,2.5,2.7,3.5c0.5,0.9,0.7,2.1,0.7,3.5
		c0,1.9-0.5,3.4-1.6,4.6c-1.1,1.2-2.4,1.8-4,1.8c-1.4,0-2.6-0.4-3.5-1.1v-3.2c1.2,0.8,2.2,1.3,3.2,1.3c0.9,0,1.6-0.3,2.1-0.9
		c0.5-0.6,0.8-1.4,0.8-2.4c0-0.9-0.2-1.7-0.6-2.4c-0.2-0.3-0.5-0.7-0.8-1.1c-0.4-0.4-0.8-0.9-1.3-1.4c-0.8-0.8-1.5-1.5-2-2.2
		c-0.5-0.6-0.9-1.2-1.2-1.6c-0.5-0.9-0.8-2.1-0.8-3.5c0-1.9,0.5-3.4,1.5-4.5c1-1.1,2.3-1.7,4-1.7C70.9,99.3,72,99.6,73.1,100.2z"/>
	<path class="st0" d="M75.2,99.7h10.6v2.8h-3.6v21.3H79v-21.3h-3.8V99.7z"/>
	<path class="st0" d="M88.5,99.7h2.8l2.1,9.8c0.3,1.2,0.5,2.5,0.7,3.7c0.2,1.2,0.4,2.5,0.6,3.9c0-0.2,0-0.3,0-0.4c0-0.1,0-0.2,0-0.2
		l0.5-2.8l0.4-2.6l0.4-1.7l1.9-9.7h2.8l2.2,24.1h-3.1l-0.5-8.2c0-0.4,0-0.8-0.1-1.1c0-0.3,0-0.6,0-0.8l-0.1-3.2l-0.1-3
		c0,0,0-0.1,0-0.1c0-0.1,0-0.2,0-0.3l-0.1,0.5c-0.1,0.6-0.2,1.1-0.2,1.5c-0.1,0.4-0.1,0.8-0.2,1.1l-0.4,2.2l-0.2,0.8l-2,10.5h-2.2
		l-1.9-9.1c-0.3-1.2-0.5-2.4-0.7-3.6s-0.4-2.5-0.6-3.9l-0.9,16.6h-3.1L88.5,99.7z"/>
	<path class="st0" d="M105.4,99.7h8.6v2.8h-5.4v7.6h4.8v2.8h-4.8v8.2h5.4v2.8h-8.6V99.7z"/>
	<path class="st0" d="M116.7,99.7h3l3.2,9.6c0.9,2.7,1.8,5.6,2.5,8.7c-0.3-1.9-0.5-3.6-0.6-5.1c-0.1-1.5-0.2-2.9-0.2-4.3v-9h3.3
		v24.1h-3l-3.6-10.9c-0.3-1-0.6-2-0.9-3.1s-0.6-2.2-0.8-3.3c0-0.1-0.1-0.3-0.1-0.5c0-0.2-0.1-0.4-0.2-0.7c0,0.3,0.1,0.5,0.1,0.7
		c0,0.2,0,0.4,0,0.5l0.2,2.5l0.2,3c0,0.2,0,0.4,0,0.6c0,0.2,0,0.5,0,0.8l0.2,10.5h-3.2V99.7z"/>
	<path class="st0" d="M130,99.7h10.6v2.8H137v21.3h-3.2v-21.3H130V99.7z"/>
	<path class="st0" d="M154.8,111.1h5.9v0.9c0,4.7-0.4,7.9-1.2,9.5c-0.8,1.7-2.3,2.5-4.6,2.5c-2.3,0-3.9-0.9-4.9-2.8
		c-1-1.9-1.5-5-1.5-9.5c0-5.1,0.5-8.4,1.6-10.1c1-1.6,2.5-2.4,4.6-2.4c1.6,0,2.8,0.4,3.7,1.1c0.9,0.8,1.6,2,2.1,3.8l-3,1.3
		c-0.1-0.6-0.3-1.2-0.5-1.6c-0.2-0.4-0.3-0.8-0.5-1c-0.4-0.5-1-0.7-1.8-0.7c-1.1,0-1.8,0.7-2.2,2c-0.4,1.4-0.6,3.9-0.6,7.5
		c0,3.7,0.2,6.1,0.6,7.4c0.4,1.3,1.2,1.9,2.3,1.9c1,0,1.8-0.5,2.2-1.4c0.4-1,0.6-2.6,0.6-4.7v-0.7v-0.5h-2.8V111.1z"/>
	<path class="st0" d="M163.6,99.7h4.3c1.8,0,3.1,0.4,4,1.3c1.1,1.1,1.6,2.8,1.6,5c0,1.7-0.3,3.1-0.9,4.2s-1.4,1.7-2.5,1.9l4.4,11.7
		h-3.3l-4.4-11.8v11.8h-3.2V99.7z M166.8,110.3c1.3,0,2.2-0.3,2.7-0.9c0.5-0.6,0.8-1.6,0.8-3c0-0.8-0.1-1.4-0.2-1.9s-0.3-1-0.5-1.3
		c-0.2-0.3-0.5-0.6-0.9-0.7c-0.4-0.2-0.8-0.2-1.3-0.2h-0.5V110.3z"/>
	<path class="st0" d="M188.6,112.3c0,4.3-0.5,7.3-1.4,9.1c-0.9,1.8-2.5,2.7-4.8,2.7c-2.3,0-4-1-5-2.9c-0.9-1.9-1.4-5.2-1.4-10
		c0-4.3,0.5-7.3,1.4-9.1c0.9-1.8,2.6-2.7,4.8-2.7c2,0,3.5,0.7,4.5,2.1c0.6,0.9,1.1,2.2,1.4,4C188.5,107,188.6,109.3,188.6,112.3z
		 M185.2,112.7c0-4.2-0.2-6.9-0.6-8.3c-0.4-1.4-1.1-2.1-2.3-2.1s-1.9,0.6-2.3,1.9c-0.4,1.3-0.6,3.8-0.6,7.7c0,3.5,0.2,6,0.6,7.3
		c0.4,1.3,1.2,1.9,2.3,1.9c1.1,0,1.8-0.6,2.2-1.8C185,118.1,185.2,115.9,185.2,112.7z"/>
	<path class="st0" d="M191.6,99.7h3.2v17c0,1.7,0.2,2.9,0.5,3.5c0.3,0.6,1,0.9,1.9,0.9c0.9,0,1.6-0.2,1.9-0.8
		c0.3-0.5,0.5-1.5,0.5-3.1V99.7h3.2v17.5c0,2.6-0.4,4.4-1.2,5.3c-1,1.1-2.4,1.6-4.4,1.6c-2.2,0-3.7-0.7-4.6-2
		c-0.6-0.9-0.9-2.7-0.9-5.3V99.7z"/>
	<path class="st0" d="M206.1,99.7h4.3c2.1,0,3.6,0.5,4.5,1.6c0.9,1.1,1.4,2.7,1.4,5c0,3.2-0.9,5.3-2.8,6.2c-0.9,0.4-2.3,0.6-4.1,0.6
		v10.7h-3.2V99.7z M209.3,110.3c1.3,0,2.3-0.3,2.8-0.8c0.5-0.6,0.8-1.5,0.8-2.9c0-1.4-0.2-2.5-0.8-3.2c-0.5-0.7-1.3-1-2.4-1h-0.5
		V110.3z"/>
</g>
<g>
	<path class="st0" d="M222.7,16.1v-1.1h4.7v1.1h-1.7v4.7h-1.3v-4.7H222.7z"/>
	<path class="st0" d="M229.9,15.1l1.3,3.9h0l1.3-3.9h1.8v5.7h-1.2v-4h0l-1.4,4h-1l-1.4-4h0v4h-1.2v-5.7H229.9z"/>
</g>
</svg>
